<svg width="19" height="19" viewBox="0 0 19 19" fill="none" xmlns="http://www.w3.org/2000/svg">
<path d="M17.5 7H16.5078C16.3429 6.41795 16.1123 5.8639 15.8232 5.3466L16.5949 4.57485C16.7318 4.43835 16.8 4.26335 16.8 4.07995C16.8 3.9004 16.7318 3.72155 16.5949 3.5847L14.6153 1.6051C14.4785 1.46825 14.2993 1.4 14.1204 1.4C13.9398 1.4 13.762 1.46825 13.6252 1.6051L12.8531 2.37685C12.3361 2.08775 11.7821 1.8571 11.2 1.69225V0.7C11.2 0.3136 10.8864 0 10.5 0H7.7C7.3136 0 7 0.3136 7 0.7V1.69225C6.41795 1.8571 5.8639 2.08775 5.34695 2.37685L4.57485 1.6051C4.43835 1.46825 4.2602 1.4 4.0796 1.4C3.9004 1.4 3.72155 1.46825 3.5847 1.6051L1.6051 3.5847C1.46825 3.72155 1.4 3.90075 1.4 4.07995C1.4 4.263 1.46825 4.438 1.6051 4.57485L2.37685 5.3466C2.08775 5.8639 1.8571 6.41795 1.6926 7H0.7C0.3136 7 0 7.3136 0 7.7V10.5C0 10.8864 0.3136 11.2 0.7 11.2H1.6926C1.8571 11.782 2.08775 12.3361 2.37685 12.8534L1.6051 13.6251C1.46825 13.7616 1.4 13.9366 1.4 14.12C1.4 14.2996 1.46825 14.4784 1.6051 14.6153L3.5847 16.5949C3.72155 16.7317 3.90075 16.8 4.0796 16.8C4.2602 16.8 4.438 16.7317 4.57485 16.5949L5.34695 15.8231C5.8639 16.1122 6.41795 16.3429 7 16.5077V17.5C7 17.8864 7.3136 18.2 7.7 18.2H10.5C10.8864 18.2 11.2 17.8864 11.2 17.5V16.5077C11.7821 16.3429 12.3361 16.1122 12.8531 15.8231L13.6252 16.5949C13.7617 16.7317 13.9398 16.8 14.1204 16.8C14.2996 16.8 14.4785 16.7317 14.6153 16.5949L16.5949 14.6153C16.7318 14.4784 16.8 14.2992 16.8 14.12C16.8 13.937 16.7318 13.762 16.5949 13.6251L15.8232 12.8534C16.1123 12.3361 16.3429 11.782 16.5078 11.2H17.5C17.8864 11.2 18.2 10.8864 18.2 10.5V7.7C18.2 7.3136 17.8864 7 17.5 7ZM9.1 12.6C7.16695 12.6 5.6 11.0327 5.6 9.1C5.6 7.16695 7.16695 5.6 9.1 5.6C11.0331 5.6 12.6 7.16695 12.6 9.1C12.6 11.0327 11.0331 12.6 9.1 12.6Z" fill="black"/>
</svg>
