<svg width="14" height="14" viewBox="0 0 14 14" fill="none" xmlns="http://www.w3.org/2000/svg">
<path fill-rule="evenodd" clip-rule="evenodd" d="M7.00004 13.6663C3.31804 13.6663 0.333374 10.6817 0.333374 6.99967C0.333374 3.31767 3.31804 0.333008 7.00004 0.333008C10.682 0.333008 13.6667 3.31767 13.6667 6.99967C13.6667 10.6817 10.682 13.6663 7.00004 13.6663ZM6.99996 12.3327C9.94548 12.3327 12.3333 9.94487 12.3333 6.99935C12.3333 4.05383 9.94548 1.66602 6.99996 1.66602C4.05444 1.66602 1.66663 4.05383 1.66663 6.99935C1.66663 9.94487 4.05444 12.3327 6.99996 12.3327ZM10.3334 6.99935H7.66671V3.66602H6.33337V8.33268H10.3334V6.99935Z" fill="black"/>
</svg>
