<svg width="13" height="13" viewBox="0 0 13 13" fill="none" xmlns="http://www.w3.org/2000/svg">
<path d="M12.4868 6.74436H9.72556C9.70113 7.7218 9.57895 8.62594 9.38346 9.45677C10.0677 9.65226 10.703 9.89662 11.2162 10.2143C11.9737 9.23684 12.438 8.03947 12.4868 6.74436ZM11.6316 10.4586L11.5338 10.6053C11.3872 10.7763 11.2406 10.9229 11.094 11.094H11.0695L11.0451 11.1429H11.0207L10.9962 11.1673L10.9718 11.1917L10.9474 11.2162L10.8741 11.2895H10.8496V11.3139L10.8008 11.3383L10.7763 11.3628L10.7519 11.4117L10.703 11.4361L10.6786 11.4605L10.6541 11.485L10.6297 11.5094H10.6053L10.5808 11.5338L10.532 11.5827L10.5075 11.6071L10.4831 11.6316C10.3365 11.7293 10.2143 11.8271 10.0677 11.9004V11.9248H10.0432L9.99436 11.9492C9.43233 12.3402 8.77256 12.609 8.08835 12.7801L8.03947 12.8045H7.9906L7.96617 12.8289H7.91729L7.79511 12.8534L7.74624 12.8778H7.7218H7.69737H7.6485L7.62406 12.9023H7.57519H7.52632L7.42857 12.9267H7.40414H7.35526H7.33083H7.30639L7.25752 12.9511H7.20865H7.15977H7.13534H7.08647L7.03759 12.9756H6.98872H6.93985H6.91541H6.89098H6.86654H6.81767H6.7688H6.74436H6.71992H6.67105H6.62218H6.59774L6.57331 13H6.54887H6.5H6.45113H6.40226V12.9756H6.35338H6.32895H6.30451H6.25564H6.2312H6.18233H6.15789H6.13346H6.08459H6.03571H5.98684H5.96241L5.91353 12.9511H5.86466H5.84023H5.81579H5.76692H5.71805L5.69361 12.9267H5.66917H5.64474H5.59586H5.54699L5.42481 12.9023H5.37594C4.03195 12.6579 2.83459 12.0226 1.90602 11.094C1.73496 10.9229 1.58835 10.7763 1.46617 10.6053L1.34398 10.4586H1.36842C0.513158 9.35902 0 7.9906 0 6.5C0 5.0094 0.513158 3.61654 1.36842 2.51692H1.34398L1.4906 2.3703L1.53947 2.29699L1.56391 2.27256L1.58835 2.24812L1.61278 2.19925L1.68609 2.15038V2.12594L1.71053 2.1015L1.73496 2.07707L1.7594 2.05263L1.78383 2.00376H1.80827L1.83271 1.97932L1.85714 1.95489L1.88158 1.90602H1.90602C2.83459 0.977444 4.03195 0.317669 5.37594 0.0977444H5.42481L5.54699 0.0733083H5.59586L5.64474 0.0488722H5.66917H5.69361H5.71805H5.76692L5.81579 0.0244361H5.84023H5.86466H5.91353H5.96241H5.98684H6.03571H6.08459L6.13346 0H6.15789H6.18233H6.2312H6.25564H6.30451H6.32895H6.35338H6.40226H6.45113H6.5H6.54887H6.57331H6.59774H6.62218H6.67105H6.71992H6.74436H6.7688H6.81767H6.86654L6.89098 0.0244361H6.91541H6.93985H6.98872H7.03759H7.08647H7.13534H7.15977L7.20865 0.0488722H7.25752H7.30639H7.33083H7.35526L7.40414 0.0733083H7.42857H7.52632L7.57519 0.0977444H7.62406H7.6485L7.69737 0.12218H7.7218H7.74624H7.79511L7.91729 0.146617L7.96617 0.171053H7.9906L8.03947 0.195489H8.08835C8.77256 0.366541 9.43233 0.659774 9.99436 1.02632L10.0432 1.05075L10.0677 1.07519C10.2143 1.17293 10.3365 1.27068 10.4831 1.36842L10.5075 1.39286L10.532 1.41729L10.5808 1.44173L10.6053 1.46617L10.6297 1.4906H10.6541L10.6786 1.53947L10.703 1.56391L10.7519 1.58835L10.7763 1.61278L10.8008 1.63722L10.8496 1.66165V1.68609L10.8741 1.71053L10.9474 1.7594L10.9718 1.78383L10.9962 1.83271L11.0207 1.85714H11.0451L11.0695 1.88158L11.094 1.90602L11.1184 1.95489H11.1429L11.1673 1.97932L11.1917 2.00376L11.2162 2.05263L11.2406 2.07707L11.2895 2.1015V2.12594L11.3139 2.15038L11.3628 2.19925L11.3872 2.24812H11.4117L11.4361 2.27256L11.4605 2.29699L11.5094 2.3703L11.6316 2.51692C12.4868 3.61654 13 5.0094 13 6.5C13 7.9906 12.4868 9.35902 11.6316 10.4586ZM1.78383 10.2143C2.29699 9.89662 2.90789 9.65226 3.61654 9.45677C3.39662 8.62594 3.27444 7.7218 3.27444 6.74436H0.488722C0.537594 8.03947 1.02632 9.23684 1.78383 10.2143ZM0.488722 6.25564H3.27444C3.27444 5.2782 3.39662 4.34962 3.61654 3.54323C2.90789 3.34774 2.29699 3.07895 1.78383 2.78571C1.02632 3.73872 0.537594 4.93609 0.488722 6.25564ZM11.2162 2.78571C10.703 3.07895 10.0677 3.34774 9.38346 3.54323C9.57895 4.34962 9.70113 5.2782 9.72556 6.25564H12.4868C12.438 4.93609 11.9737 3.73872 11.2162 2.78571ZM7.94173 0.659774C8.2594 1.00188 8.57707 1.44173 8.82143 1.97932C8.99248 2.29699 9.11466 2.66353 9.23684 3.05451C9.87218 2.90789 10.4342 2.66353 10.8985 2.39474C10.5808 2.05263 10.2143 1.7594 9.82331 1.4906L9.79887 1.46617L9.75 1.44173H9.72556L9.70113 1.41729L9.67669 1.39286H9.65226L9.62782 1.36842H9.60338V1.34398H9.57895L9.55451 1.31955H9.53008L9.50564 1.29511H9.4812V1.27068L9.43233 1.24624H9.4079L9.38346 1.2218H9.35902V1.19737H9.31015L9.28571 1.17293L9.26128 1.1485H9.23684H9.21241L9.18797 1.12406H9.16353V1.09962H9.11466L9.09023 1.07519L9.06579 1.05075H9.04135H9.01692L8.91917 1.00188L8.89474 0.977444H8.8703L8.84586 0.953008H8.82143H8.79699L8.77256 0.928571H8.74812L8.69925 0.904135L8.65038 0.879699H8.62594H8.6015V0.855263H8.55263L8.5282 0.830827H8.50376H8.47932L8.45489 0.806391H8.43045L8.38158 0.781955H8.35714H8.33271L8.28383 0.757519H8.2594L8.21053 0.733083H8.18609H8.16165L8.13722 0.708647H8.11278H8.08835H8.06391V0.684211H8.03947H8.01504H7.9906L7.94173 0.659774ZM5.05827 0.659774C4.56955 0.781955 4.1297 0.953008 3.71429 1.17293H3.68985C3.59211 1.24624 3.49436 1.29511 3.39662 1.34398L3.37218 1.36842L3.27444 1.44173H3.25H3.22556L3.20113 1.46617C3.12782 1.51504 3.03008 1.58835 2.95677 1.63722L2.93233 1.66165L2.90789 1.68609L2.88346 1.71053L2.83459 1.73496H2.81015L2.78571 1.7594L2.73684 1.80827L2.71241 1.83271L2.66353 1.85714L2.6391 1.88158L2.61466 1.90602L2.59023 1.93045L2.56579 1.95489L2.54135 1.97932L2.51692 2.00376L2.49248 2.0282L2.46804 2.05263L2.41917 2.07707L2.39474 2.1015L2.3703 2.12594L2.34586 2.15038L2.32143 2.17481L2.29699 2.19925L2.27256 2.22368L2.24812 2.24812C2.19925 2.29699 2.15038 2.34586 2.1015 2.39474C2.56579 2.66353 3.12782 2.90789 3.73872 3.05451C3.8609 2.66353 4.00752 2.29699 4.15414 1.97932C4.42293 1.44173 4.71617 1.00188 5.05827 0.659774ZM2.95677 11.3628C3.03008 11.4117 3.12782 11.4605 3.20113 11.5094L3.22556 11.5338L3.25 11.5583H3.27444L3.37218 11.6316H3.39662C3.49436 11.7049 3.59211 11.7538 3.68985 11.8026H3.71429C4.1297 12.047 4.56955 12.218 5.05827 12.3158C4.71617 11.9981 4.42293 11.5583 4.15414 11.0207C4.00752 10.6786 3.8609 10.312 3.73872 9.92105C3.12782 10.0921 2.56579 10.312 2.1015 10.5808L2.12594 10.6053L2.15038 10.6297L2.17481 10.6541L2.19925 10.6786L2.22368 10.703L2.24812 10.7274V10.7519L2.27256 10.7763L2.29699 10.8008L2.32143 10.8252L2.34586 10.8496L2.3703 10.8741L2.39474 10.8985L2.41917 10.9229L2.46804 10.9474L2.49248 10.9718L2.51692 10.9962L2.54135 11.0207L2.56579 11.0451L2.59023 11.0695L2.61466 11.094H2.6391L2.66353 11.1184L2.71241 11.1429L2.73684 11.1673L2.78571 11.2162L2.81015 11.2406L2.83459 11.265L2.88346 11.2895L2.90789 11.3139L2.93233 11.3383H2.95677V11.3628ZM7.94173 12.3158H7.9906H8.01504V12.2914H8.03947H8.06391H8.08835H8.11278L8.13722 12.2669H8.16165H8.18609L8.21053 12.2425H8.2594L8.28383 12.218H8.33271H8.35714L8.38158 12.1936H8.43045V12.1692H8.45489H8.47932L8.50376 12.1447H8.5282H8.55263L8.6015 12.1203H8.62594L8.65038 12.0959H8.69925V12.0714L8.74812 12.047H8.77256H8.79699L8.82143 12.0226H8.84586H8.8703V11.9981H8.89474H8.91917L9.01692 11.9492H9.04135L9.06579 11.9248L9.09023 11.9004H9.11466L9.16353 11.8759H9.18797L9.21241 11.8515H9.23684L9.26128 11.8271L9.28571 11.8026H9.31015L9.35902 11.7782L9.38346 11.7538H9.4079L9.43233 11.7293L9.4812 11.7049L9.50564 11.6805H9.53008L9.55451 11.656H9.57895L9.60338 11.6316L9.62782 11.6071H9.65226L9.67669 11.5827H9.70113L9.72556 11.5583L9.75 11.5338L9.79887 11.5094H9.82331C10.141 11.265 10.4586 11.0207 10.7519 10.7519V10.7274L10.7763 10.703L10.8008 10.6786L10.8252 10.6541L10.8496 10.6297L10.8741 10.6053L10.8985 10.5808C10.4342 10.312 9.87218 10.0921 9.23684 9.92105C9.11466 10.312 8.99248 10.6786 8.82143 11.0207C8.57707 11.5583 8.2594 11.9981 7.94173 12.3158ZM8.89474 3.64098C8.16165 3.81203 7.35526 3.90977 6.5 3.90977C5.64474 3.90977 4.83835 3.81203 4.08083 3.64098C3.88534 4.42293 3.76316 5.30263 3.76316 6.25564H9.23684C9.21241 5.30263 9.09023 4.42293 8.89474 3.64098ZM4.20301 3.17669C4.91165 3.32331 5.69361 3.42105 6.5 3.42105C7.30639 3.42105 8.06391 3.32331 8.77256 3.17669C8.65038 2.81015 8.5282 2.49248 8.38158 2.17481C7.89286 1.12406 7.20865 0.488722 6.5 0.488722C5.76692 0.488722 5.10714 1.12406 4.59399 2.17481C4.44737 2.49248 4.32519 2.81015 4.20301 3.17669ZM4.08083 9.33459C4.83835 9.16353 5.64474 9.09023 6.5 9.09023C7.35526 9.09023 8.16165 9.16353 8.89474 9.33459C9.09023 8.55263 9.21241 7.67293 9.23684 6.74436H3.76316C3.76316 7.67293 3.88534 8.55263 4.08083 9.33459ZM8.77256 9.79887C8.06391 9.65226 7.30639 9.57895 6.5 9.57895C5.69361 9.57895 4.91165 9.65226 4.20301 9.79887C4.32519 10.1654 4.44737 10.5075 4.59399 10.8008C5.10714 11.8515 5.76692 12.5113 6.5 12.5113C7.20865 12.5113 7.89286 11.8515 8.38158 10.8008C8.5282 10.5075 8.65038 10.1654 8.77256 9.79887Z" fill="black"/>
</svg>
